<?xml version="1.0" standalone="no"?>
<!DOCTYPE svg PUBLIC "-//W3C//DTD SVG 20010904//EN"
 "http://www.w3.org/TR/2001/REC-SVG-20010904/DTD/svg10.dtd">
<svg version="1.0" xmlns="http://www.w3.org/2000/svg"
 width="960.000000pt" height="685.000000pt" viewBox="0 0 960.000000 685.000000"
 preserveAspectRatio="xMidYMid meet">
<metadata>
Created by potrace 1.16, written by Peter Selinger 2001-2019
</metadata>
<g transform="translate(0.000000,685.000000) scale(0.100000,-0.100000)"
fill="white" stroke="none">
<path d="M815 6835 c-139 -31 -305 -107 -410 -189 -21 -17 -35 -25 -31 -17 6
9 5 12 -5 9 -8 -3 -13 -10 -12 -15 1 -5 -25 -36 -58 -69 -32 -32 -59 -54 -59
-50 0 5 -9 1 -20 -9 -25 -22 -27 -43 -2 -24 15 13 16 12 3 -4 -8 -9 -16 -15
-19 -12 -7 7 -32 -15 -32 -27 0 -6 8 -4 18 3 15 11 15 11 4 -1 -7 -8 -18 -15
-24 -15 -6 0 -13 -6 -16 -14 -3 -9 0 -11 8 -6 9 5 11 4 6 -4 -4 -6 -11 -9 -16
-6 -5 3 -14 -3 -19 -14 -14 -26 -14 -34 1 -25 7 4 8 3 4 -5 -4 -6 -11 -9 -16
-6 -13 8 -52 -72 -55 -110 -1 -17 -7 -29 -13 -28 -7 2 -12 -4 -12 -13 0 -8 4
-13 9 -10 5 3 -3 -29 -18 -72 l-26 -77 0 -2595 0 -2595 21 -67 c12 -37 17 -65
11 -61 -6 4 -8 -3 -4 -18 4 -13 7 -28 7 -32 0 -5 4 -6 9 -2 13 8 32 -30 25
-48 -7 -19 33 -100 46 -92 5 3 12 0 16 -6 4 -8 3 -9 -4 -5 -15 9 -15 1 -1 -25
5 -11 14 -17 19 -14 5 3 19 -9 31 -27 13 -17 17 -28 10 -23 -9 5 -12 3 -9 -6
3 -8 10 -13 15 -12 6 1 21 -10 34 -25 13 -14 16 -20 6 -13 -21 16 -23 -1 -2
-19 8 -7 15 -9 15 -5 0 4 24 -14 52 -42 161 -152 359 -250 568 -282 56 -9
1064 -11 3985 -9 3796 3 3912 4 3975 22 174 50 331 139 458 260 39 38 72 65
72 61 0 -5 9 0 20 10 25 22 27 43 3 24 -16 -13 -17 -12 -4 4 8 9 16 15 19 12
7 -7 32 15 32 27 0 6 -8 4 -17 -3 -16 -11 -16 -11 -5 1 7 8 18 15 24 15 6 0
13 6 16 14 3 9 0 11 -8 6 -9 -5 -11 -4 -6 4 4 6 11 9 16 6 5 -3 14 3 19 14 14
26 14 34 -1 25 -7 -4 -8 -3 -4 5 4 6 11 9 16 6 13 -8 52 72 55 110 1 17 7 29
13 27 7 -1 12 5 12 14 0 8 -4 13 -8 10 -5 -3 3 32 17 77 l26 82 0 2625 0 2625
-26 67 c-15 37 -22 65 -17 62 14 -9 1 29 -29 89 -13 26 -28 45 -33 42 -5 -3
-12 0 -16 6 -4 8 -3 9 4 5 18 -11 15 3 -9 40 -11 19 -24 32 -29 29 -4 -2 -16
5 -26 18 -16 18 -16 19 -1 8 9 -7 17 -9 17 -3 0 12 -25 34 -32 27 -2 -3 -15 7
-29 22 -13 15 -16 21 -6 14 9 -7 17 -9 17 -4 0 12 -32 42 -43 41 -5 0 -32 20
-60 44 -122 105 -253 178 -404 225 l-88 28 -3955 2 c-3247 1 -3966 -1 -4015
-12z m8645 -445 c6 -11 8 -20 6 -20 -3 0 -10 9 -16 20 -6 11 -8 20 -6 20 3 0
10 -9 16 -20z m-860 -93 c0 -1 -379 -380 -842 -842 l-843 -840 835 837 835
838 -3780 3 -3780 2 3788 3 c2083 1 3787 1 3787 -1z m-970 -942 c-509 -509
-920 -925 -915 -925 19 0 -1799 -1812 -1832 -1826 -18 -8 -47 -14 -65 -14 -37
0 -102 30 -100 45 2 12 -709 725 -723 725 -5 0 152 -163 350 -362 198 -200
-451 447 -1442 1437 -991 989 -1800 1801 -1798 1804 3 2 -2 13 -12 23 -16 17
99 18 3723 18 l3739 0 -925 -925z m1908 890 c-3 -3 -9 2 -12 12 -6 14 -5 15 5
6 7 -7 10 -15 7 -18z m-461 -2772 c-2 -2261 -4 -2564 -18 -2608 -8 -28 -20
-49 -27 -48 -12 3 -15 -7 -16 -57 -1 -14 -7 -25 -15 -25 -8 0 -16 -6 -19 -14
-3 -9 0 -11 9 -6 8 5 11 4 6 -1 -5 -5 -14 -9 -20 -9 -5 0 -12 -6 -15 -14 -3
-9 0 -11 9 -6 8 4 -2 -9 -21 -29 -38 -41 -97 -79 -149 -97 l-33 -12 -1294
1294 -1294 1294 1447 1447 c797 797 1449 1448 1451 1448 1 0 1 -1151 -1 -2557z
m-6954 -1615 l-1307 -1307 -51 27 c-27 15 -49 32 -48 37 2 14 -38 56 -48 50
-4 -3 -11 0 -15 6 -5 8 -3 9 6 4 8 -5 11 -3 8 6 -3 8 -10 14 -15 14 -6 0 -15
4 -20 9 -5 5 -3 6 5 2 15 -9 15 -10 -3 39 -9 25 -15 32 -15 20 -1 -13 -7 -7
-18 20 -16 37 -17 231 -20 2635 l-2 2595 1425 -1425 1425 -1425 -1307 -1307z
m1671 920 c-5 -7 -2 -9 8 -6 10 4 153 -132 459 -439 244 -244 461 -453 481
-464 45 -23 96 -24 146 -4 25 11 177 156 480 458 l442 442 1123 -1123 1122
-1122 -3265 0 -3265 0 1135 1135 c624 624 1136 1135 1138 1135 2 0 0 -5 -4
-12z m5239 -1993 c-3 -9 -8 -14 -10 -11 -3 3 -2 9 2 15 9 16 15 13 8 -4z
m-8342 -152 c13 -16 12 -17 -3 -4 -10 7 -18 15 -18 17 0 8 8 3 21 -13z"/>
</g>
</svg>
