<?xml version="1.0" standalone="no"?>
<!DOCTYPE svg PUBLIC "-//W3C//DTD SVG 20010904//EN"
 "http://www.w3.org/TR/2001/REC-SVG-20010904/DTD/svg10.dtd">
<svg version="1.0" xmlns="http://www.w3.org/2000/svg"
 width="500.000000pt" height="500.000000pt" viewBox="0 0 500.000000 500.000000"
 preserveAspectRatio="xMidYMid meet">
<metadata>
Created by potrace 1.16, written by Peter Selinger 2001-2019
</metadata>
<g transform="translate(0.000000,500.000000) scale(0.100000,-0.100000)"
fill="white" stroke="none">
<path d="M865 4493 c-32 -7 -64 -18 -72 -24 -7 -6 -13 -9 -13 -5 0 4 -25 -9
-56 -29 -69 -44 -138 -116 -165 -172 -11 -24 -25 -45 -30 -49 -5 -3 -9 -16 -9
-30 0 -13 -4 -24 -8 -24 -4 0 -9 -8 -11 -17 -2 -10 -5 -738 -7 -1618 -4 -1720
-6 -1651 46 -1767 11 -27 25 -48 30 -48 6 0 10 -6 10 -12 0 -23 84 -106 143
-142 89 -53 153 -69 276 -70 58 -1 109 -5 114 -11 4 -7 10 -7 15 0 10 14 374
14 385 0 5 -7 9 -7 15 0 8 12 211 13 230 1 6 -4 12 -3 12 1 0 11 141 10 157 0
6 -4 14 -4 17 1 6 10 197 8 214 -2 7 -4 12 -3 12 1 0 11 191 10 209 -1 11 -7
12 -6 6 5 -8 12 -6 12 8 0 9 -7 17 -9 17 -4 0 5 34 9 75 8 43 0 75 -4 75 -10
0 -6 3 -6 8 0 9 14 215 14 225 0 5 -7 9 -7 15 0 8 12 211 13 230 1 6 -4 12 -3
12 1 0 13 143 10 152 -2 5 -7 8 -6 8 0 0 12 209 13 228 1 7 -4 12 -3 12 1 0
11 191 10 209 -1 11 -7 12 -6 6 5 -8 12 -6 12 8 0 9 -7 17 -9 17 -4 0 12 143
11 152 -2 5 -7 8 -7 8 0 0 13 199 13 219 1 10 -7 12 -5 7 3 -5 8 -3 11 5 10
63 -13 218 61 301 143 25 24 89 118 82 118 -4 0 -1 7 6 15 6 8 20 45 29 82 14
55 17 110 16 293 -1 143 3 230 9 239 9 12 8 13 -4 6 -13 -8 -13 -7 -1 8 7 9 9
17 5 17 -13 0 -12 213 1 223 7 5 7 9 0 15 -14 9 -14 215 0 225 7 5 7 9 0 15
-12 8 -14 211 -2 230 5 6 5 12 0 12 -4 0 -8 50 -8 110 0 61 4 110 8 110 5 0 5
6 1 12 -12 20 -11 718 1 718 6 0 6 3 0 8 -14 9 -14 215 0 225 7 5 7 9 0 15
-14 9 -14 215 0 225 7 5 7 9 0 15 -14 9 -14 215 0 225 7 5 7 9 0 15 -13 9 -14
222 -1 222 5 0 5 5 -1 13 -5 6 -10 26 -12 42 -4 44 -31 134 -42 141 -5 3 -7
10 -4 15 4 5 1 9 -4 9 -6 0 -11 4 -11 10 0 23 -68 104 -126 150 -32 25 -101
60 -118 60 -9 0 -16 4 -16 9 0 5 -24 12 -52 17 -29 4 -764 8 -1634 9 -1278 1
-1592 -1 -1639 -12z m760 -689 c56 -26 141 -109 161 -157 25 -61 28 -74 28
-152 1 -169 -128 -303 -308 -319 -38 -4 -115 13 -142 30 -11 8 -23 12 -26 9
-11 -11 -115 102 -139 150 -20 42 -24 64 -24 140 1 77 4 97 27 140 42 82 108
140 188 169 57 21 182 16 235 -10z m1687 -818 c77 -10 168 -43 237 -83 64 -38
181 -154 181 -179 0 -8 4 -14 8 -14 7 0 15 -15 49 -100 21 -51 51 -203 49
-244 -1 -20 1 -36 4 -36 3 0 5 -58 5 -130 0 -71 -3 -130 -6 -130 -4 0 -3 -16
1 -35 4 -19 5 -35 1 -35 -5 0 -5 -20 -1 -45 4 -25 4 -45 -1 -45 -4 0 -3 -16 1
-35 4 -19 5 -35 1 -35 -5 0 -5 -20 -1 -45 4 -25 4 -45 -1 -45 -4 0 -3 -16 1
-35 4 -19 5 -35 1 -35 -5 0 -5 -20 -1 -45 4 -25 4 -45 -1 -45 -4 0 -3 -16 1
-35 4 -19 5 -35 1 -35 -5 0 -5 -20 -1 -45 4 -25 4 -45 -1 -45 -4 0 -3 -16 1
-35 4 -19 5 -35 1 -35 -5 0 -5 -20 -1 -45 4 -25 4 -45 -1 -45 -4 0 -3 -16 1
-35 4 -19 4 -35 0 -35 -5 0 -6 -10 -2 -22 4 -18 2 -20 -16 -16 -12 4 -24 2
-27 -3 -3 -4 -16 -4 -29 1 -13 5 -27 6 -30 3 -8 -8 -292 -6 -306 2 -5 3 -10 2
-10 -4 0 -6 -11 -6 -30 -1 -19 5 -30 5 -30 -1 0 -6 -6 -7 -12 -2 -7 4 -22 7
-33 8 -20 0 -20 7 -21 511 -1 281 -4 524 -8 540 -5 16 -10 40 -12 54 -7 38
-44 109 -76 145 -42 48 -115 76 -201 77 -40 0 -82 -2 -94 -5 -79 -20 -165 -83
-196 -143 -8 -16 -23 -56 -33 -89 -16 -54 -18 -109 -19 -570 -1 -281 -4 -516
-8 -522 -4 -7 -17 -9 -34 -4 -15 4 -47 4 -70 1 -24 -4 -46 -3 -49 1 -2 5 -16
4 -29 -1 -15 -6 -27 -6 -30 0 -3 6 -15 6 -30 0 -15 -6 -27 -6 -30 0 -3 6 -15
6 -30 0 -15 -6 -27 -6 -30 0 -3 6 -15 6 -30 0 -15 -6 -27 -6 -30 0 -3 6 -15 6
-30 0 -13 -5 -27 -6 -29 -1 -3 4 -19 6 -36 3 -27 -4 -30 -2 -31 24 -3 101 -3
1722 0 1737 3 16 24 17 265 17 l261 0 -1 -115 c0 -63 2 -115 6 -115 4 0 13 11
20 25 7 14 17 25 22 25 4 0 8 5 8 10 0 13 25 38 91 90 85 67 188 113 286 126
26 3 49 7 50 8 4 3 133 -2 175 -8z m-1542 -935 l0 -889 -25 -4 c-14 -3 -28 -2
-31 3 -2 5 -16 4 -29 -1 -15 -6 -27 -6 -30 0 -3 6 -15 6 -30 0 -15 -6 -27 -6
-30 0 -3 6 -15 6 -30 0 -15 -6 -27 -6 -30 0 -3 6 -15 6 -30 0 -14 -5 -27 -5
-30 0 -3 5 -18 5 -35 0 -17 -5 -30 -5 -30 0 0 5 -13 5 -30 0 -16 -5 -30 -5
-30 0 0 4 -15 5 -32 1 -18 -4 -45 -4 -60 0 -15 4 -29 4 -32 1 -3 -3 -6 396 -6
886 l0 892 275 0 275 0 0 -889z"/>
</g>
</svg>
