<?xml version="1.0" standalone="no"?>
<!DOCTYPE svg PUBLIC "-//W3C//DTD SVG 20010904//EN"
 "http://www.w3.org/TR/2001/REC-SVG-20010904/DTD/svg10.dtd">
<svg version="1.0" xmlns="http://www.w3.org/2000/svg"
 width="512.000000pt" height="512.000000pt" viewBox="0 0 512.000000 512.000000"
 preserveAspectRatio="xMidYMid meet">
<metadata>
Created by potrace 1.16, written by Peter Selinger 2001-2019
</metadata>
<g transform="translate(0.000000,512.000000) scale(0.100000,-0.100000)"
fill="white" stroke="none">
<path d="M115 4711 c-47 -22 -89 -64 -104 -104 -7 -17 -11 -126 -11 -278 0
-225 2 -253 19 -287 22 -42 42 -62 91 -88 32 -17 60 -19 286 -19 l251 0 48 30
c32 20 56 45 72 74 22 43 23 52 23 288 0 260 -4 289 -53 342 -51 55 -81 61
-342 61 -213 0 -245 -3 -280 -19z"/>
<path d="M1285 4509 c-68 -36 -103 -97 -104 -179 -1 -55 27 -119 63 -148 72
-56 -40 -53 1826 -50 1576 3 1717 4 1745 20 74 41 118 121 108 199 -10 78 -44
129 -105 160 -36 18 -89 19 -1765 19 l-1728 0 -40 -21z"/>
<path d="M110 3528 c-24 -13 -58 -40 -74 -61 l-31 -39 -3 -263 c-3 -248 -2
-266 17 -303 25 -49 71 -88 119 -102 48 -13 456 -13 503 0 57 16 102 51 127
100 21 42 22 55 22 287 0 260 -4 289 -53 342 -51 55 -81 61 -342 61 -230 0
-243 -1 -285 -22z"/>
<path d="M1295 3331 c-163 -75 -147 -322 23 -371 26 -8 553 -10 1757 -8 1719
3 1720 3 1752 24 133 85 128 279 -9 350 l-47 24 -1718 0 c-1649 0 -1720 -1
-1758 -19z"/>
<path d="M127 2355 c-48 -17 -83 -48 -108 -98 -19 -35 -20 -57 -17 -302 l3
-263 31 -39 c16 -21 50 -48 74 -60 42 -22 55 -23 285 -23 261 0 291 6 342 61
49 53 53 82 53 342 0 232 -1 245 -22 287 -25 49 -70 84 -127 100 -56 16 -468
12 -514 -5z"/>
<path d="M1317 2160 c-140 -42 -183 -238 -75 -336 63 -58 -73 -54 1820 -52
l1733 3 35 22 c69 43 103 114 93 191 -7 57 -22 89 -60 124 -65 62 63 58 -1810
57 -939 0 -1721 -5 -1736 -9z"/>
<path d="M155 1181 c-41 -10 -87 -35 -106 -57 -46 -53 -49 -71 -49 -333 0
-152 4 -261 11 -278 15 -40 57 -82 104 -104 35 -16 67 -19 280 -19 261 0 291
6 342 61 49 53 53 82 53 342 0 236 -1 245 -23 288 -16 29 -40 54 -72 74 l-48
30 -231 2 c-127 1 -244 -2 -261 -6z"/>
<path d="M1330 983 c-42 -7 -102 -55 -127 -102 -41 -78 -27 -176 34 -232 68
-64 -79 -59 1814 -59 1716 0 1723 0 1765 21 80 38 121 119 104 207 -5 29 -14
61 -19 71 -18 32 -79 80 -118 90 -36 10 -3392 14 -3453 4z"/>
</g>
</svg>
