<?xml version="1.0" standalone="no"?>
<!DOCTYPE svg PUBLIC "-//W3C//DTD SVG 20010904//EN"
 "http://www.w3.org/TR/2001/REC-SVG-20010904/DTD/svg10.dtd">
<svg version="1.0" xmlns="http://www.w3.org/2000/svg"
 width="512.000000pt" height="512.000000pt" viewBox="0 0 512.000000 512.000000"
 preserveAspectRatio="xMidYMid meet">
<metadata>
Created by potrace 1.16, written by Peter Selinger 2001-2019
</metadata>
<g transform="translate(0.000000,512.000000) scale(0.100000,-0.100000)"
fill="white" stroke="none">
<path d="M2940 4756 c-696 -145 -1282 -268 -1301 -275 -38 -12 -67 -39 -90
-81 -12 -21 -15 -274 -19 -1500 l-5 -1475 -22 -42 c-32 -58 -87 -100 -163
-122 -85 -25 -119 -29 -345 -41 -125 -7 -219 -17 -275 -30 -302 -73 -448 -272
-411 -562 28 -220 124 -361 305 -448 131 -63 200 -75 426 -74 180 1 203 3 294
28 150 41 245 94 341 190 52 53 90 102 109 141 65 134 60 14 66 1545 5 1505 2
1430 58 1451 45 18 2072 459 2107 459 20 0 39 -8 51 -21 18 -20 19 -51 19
-993 l0 -971 -24 -48 c-26 -54 -73 -90 -148 -113 -30 -10 -124 -19 -257 -24
-116 -6 -250 -17 -299 -25 -259 -45 -416 -149 -466 -310 -85 -271 37 -570 284
-697 273 -141 701 -144 931 -7 129 77 224 205 276 369 l23 75 0 1870 c0 1850
0 1870 -20 1909 -28 56 -64 79 -127 82 -39 3 -376 -64 -1318 -260z"/>
</g>
</svg>
