<?xml version="1.0" standalone="no"?>
<!DOCTYPE svg PUBLIC "-//W3C//DTD SVG 20010904//EN"
 "http://www.w3.org/TR/2001/REC-SVG-20010904/DTD/svg10.dtd">
<svg version="1.0" xmlns="http://www.w3.org/2000/svg"
 width="512.000000pt" height="512.000000pt" viewBox="0 0 512.000000 512.000000"
 preserveAspectRatio="xMidYMid meet">
<metadata>
Created by potrace 1.16, written by Peter Selinger 2001-2019
</metadata>
<g transform="translate(0.000000,512.000000) scale(0.100000,-0.100000)"
fill="white" stroke="none">
<path d="M2460 3789 c-230 -16 -451 -99 -650 -244 -36 -27 -225 -207 -421
-402 -348 -346 -356 -353 -388 -347 -32 7 -39 0 -302 -262 l-271 -269 5 -41 4
-42 -148 -148 c-81 -81 -154 -162 -160 -178 -7 -17 -32 -49 -57 -71 -40 -36
-46 -47 -58 -110 -19 -101 -18 -158 4 -178 22 -21 81 -21 176 -3 63 12 72 18
116 65 26 28 55 51 65 51 10 0 87 68 174 154 155 152 156 153 196 149 l40 -4
265 265 c262 263 265 266 264 306 -2 68 8 36 17 -55 48 -470 372 -877 825
-1033 242 -83 550 -84 796 -2 109 37 188 76 298 148 67 43 166 136 460 428
307 305 378 370 394 365 11 -4 29 -6 41 -3 12 2 140 122 285 267 l262 263 -4
44 -5 43 158 161 c88 88 159 167 159 176 0 9 21 33 46 55 42 36 47 45 60 108
36 190 13 216 -166 186 -70 -12 -78 -16 -121 -62 -26 -27 -55 -49 -64 -49 -10
0 -90 -72 -179 -159 -143 -141 -164 -158 -184 -150 -12 5 -32 5 -45 0 -12 -5
-141 -129 -286 -274 -262 -264 -263 -266 -257 -300 4 -20 3 -38 -2 -41 -5 -3
-12 27 -15 67 -35 451 -323 851 -745 1033 -170 73 -378 106 -582 93z m310
-166 c374 -74 694 -355 816 -719 37 -111 54 -223 54 -354 l0 -116 -56 -54
c-31 -30 -54 -47 -50 -36 3 10 11 64 18 118 44 389 -167 791 -514 978 -147 79
-261 109 -438 117 -103 4 -156 1 -223 -11 -317 -60 -576 -255 -717 -541 -58
-118 -86 -214 -99 -347 -11 -115 0 -257 30 -368 28 -108 108 -262 183 -356
209 -260 493 -387 834 -371 196 9 345 57 512 165 31 20 219 199 425 404 l371
368 29 -30 30 -31 -350 -348 c-193 -191 -378 -369 -413 -395 -216 -164 -491
-242 -762 -215 -620 63 -1064 637 -965 1248 99 609 681 1014 1285 894z m2190
-151 c0 -13 -49 -56 -56 -49 -8 8 28 56 44 57 6 0 12 -4 12 -8z m-2165 -92
c213 -68 382 -201 497 -391 75 -124 108 -243 113 -404 4 -111 3 -115 -5 -45
-29 233 -118 420 -271 571 -114 113 -278 200 -440 234 -90 19 -283 19 -373 0
-69 -14 -150 -42 -209 -71 -30 -14 -31 -14 -12 1 51 42 182 97 285 120 99 22
324 14 415 -15z m2000 -70 c18 -20 18 -21 -13 -53 l-32 -32 -22 23 -22 22 29
30 c34 36 36 36 60 10z m-2097 -121 c123 -31 224 -91 327 -194 103 -103 145
-168 188 -292 42 -122 49 -278 18 -405 -38 -159 -122 -297 -246 -401 -212
-177 -504 -226 -753 -125 -105 43 -173 89 -262 178 -146 146 -213 308 -213
515 0 379 275 693 653 746 75 10 198 1 288 -22z m1907 -108 l-35 -36 -22 23
-22 22 34 35 34 35 23 -22 24 -22 -36 -35z m-161 -120 c68 -68 78 -97 31 -85
-23 6 -64 -10 -77 -30 -4 -6 -8 -27 -8 -46 0 -29 -10 -45 -67 -102 -58 -59
-72 -68 -103 -68 -49 0 -83 -35 -78 -81 1 -18 -2 -34 -7 -36 -13 -4 -151 134
-142 143 3 4 20 -5 37 -20 86 -72 181 25 103 106 l-27 28 69 70 c69 69 69 70
90 50 47 -44 111 -45 134 -1 17 32 13 62 -14 97 -14 18 -25 35 -25 38 0 16 22
0 84 -63z m-3092 -130 c-14 -65 -19 -74 -84 -138 l-68 -68 -27 28 -28 27 110
110 c60 61 110 110 111 110 0 0 -6 -31 -14 -69z m-287 -291 c38 -38 66 -73 62
-76 -4 -4 -21 5 -37 21 -82 78 -182 -25 -103 -107 l27 -28 -69 -70 -68 -69
-34 29 c-40 35 -70 38 -107 9 -37 -29 -36 -76 4 -114 20 -20 27 -32 20 -39
-12 -12 -152 122 -147 139 2 5 20 10 40 11 50 1 77 28 77 73 0 31 10 45 72
108 62 63 75 71 99 66 37 -7 81 35 79 75 -4 59 1 57 85 -28z m-490 -490 c18
-20 18 -21 -15 -55 l-34 -35 -23 22 -23 22 32 33 c38 39 39 39 63 13z m-180
-180 c18 -20 18 -21 -13 -53 l-32 -32 -22 23 -22 22 29 30 c34 36 36 36 60 10z
m-194 -203 c-17 -17 -34 -28 -37 -24 -10 10 47 68 59 60 5 -3 -5 -19 -22 -36z"/>
</g>
</svg>
