<?xml version="1.0" standalone="no"?>
<!DOCTYPE svg PUBLIC "-//W3C//DTD SVG 20010904//EN"
 "http://www.w3.org/TR/2001/REC-SVG-20010904/DTD/svg10.dtd">
<svg version="1.0" xmlns="http://www.w3.org/2000/svg"
 width="1024.000000pt" height="1024.000000pt" viewBox="0 0 1024.000000 1024.000000"
 preserveAspectRatio="xMidYMid meet">
<metadata>
Created by potrace 1.16, written by Peter Selinger 2001-2019
</metadata>
<g transform="translate(0.000000,1024.000000) scale(0.100000,-0.100000)"
fill="white" stroke="none">
<path d="M2506 9587 c-47 -30 -65 -52 -71 -87 -8 -47 22 -119 60 -144 15 -10
34 -25 44 -34 9 -9 32 -28 51 -42 31 -23 87 -68 135 -108 11 -9 38 -31 61 -48
22 -17 49 -38 60 -47 10 -9 57 -46 104 -84 47 -37 90 -72 96 -78 6 -5 26 -21
44 -35 66 -49 145 -115 148 -122 2 -4 8 -8 13 -8 6 0 21 -10 34 -22 13 -13 30
-28 37 -33 64 -49 204 -161 208 -165 3 -3 59 -48 125 -100 66 -52 129 -103
140 -112 11 -9 115 -92 230 -184 116 -91 212 -171 213 -175 2 -5 9 -9 15 -9 7
0 31 -18 55 -40 24 -22 45 -40 48 -40 3 0 11 -6 18 -12 7 -7 27 -24 45 -38 18
-14 44 -35 57 -47 12 -13 28 -23 33 -23 6 0 14 -6 18 -13 4 -6 26 -25 48 -42
22 -16 42 -31 45 -34 4 -5 86 -71 115 -93 14 -11 122 -98 152 -123 l25 -20
-556 0 c-306 0 -556 -4 -556 -8 0 -5 -4 -6 -9 -3 -16 10 -95 -28 -129 -63 -36
-35 -67 -95 -76 -145 -3 -16 -7 -30 -9 -32 -2 -2 -643 -4 -1424 -4 -1585 0
-1471 5 -1557 -71 -30 -26 -52 -57 -65 -92 -20 -52 -20 -76 -20 -3158 -1
-3500 -9 -3174 78 -3261 87 -87 -397 -78 4556 -76 l4400 3 40 22 c59 32 105
85 126 145 18 51 18 172 19 3164 l0 3110 -22 53 c-13 30 -41 70 -64 91 -81 74
18 70 -1566 70 l-1418 0 -5 25 c-3 14 -7 35 -10 48 -14 71 -111 161 -187 175
-18 3 -280 6 -581 6 l-548 1 29 25 c16 14 44 36 63 50 18 14 41 33 51 43 10 9
22 17 27 17 5 0 11 4 13 8 2 6 186 156 322 262 10 8 27 23 38 33 10 9 20 17
23 17 3 0 18 11 33 24 23 20 141 115 288 231 52 41 1051 839 1094 874 19 16
64 52 100 80 36 28 79 62 95 75 17 14 71 57 120 97 50 39 92 76 93 80 2 5 10
9 18 9 22 0 68 78 70 119 5 112 -115 165 -217 96 -24 -16 -46 -33 -49 -36 -3
-3 -41 -34 -85 -69 -44 -34 -81 -66 -83 -71 -2 -5 -8 -9 -13 -9 -6 0 -21 -10
-33 -22 -13 -13 -37 -33 -52 -45 -16 -12 -46 -35 -68 -52 -21 -17 -43 -31 -48
-31 -5 0 -6 -4 -3 -10 3 -5 2 -10 -3 -10 -6 0 -28 -15 -49 -32 -22 -18 -56
-46 -77 -63 -99 -77 -154 -122 -168 -135 -9 -8 -28 -24 -44 -35 -33 -24 -80
-62 -114 -92 -14 -13 -28 -23 -32 -23 -4 0 -20 -12 -35 -26 -15 -14 -228 -186
-473 -382 -245 -195 -453 -362 -462 -371 -9 -9 -23 -21 -30 -26 -7 -6 -33 -26
-58 -45 -64 -49 -63 -49 -86 -68 -12 -9 -39 -30 -60 -47 -21 -16 -46 -38 -56
-47 -10 -10 -22 -18 -27 -18 -5 0 -11 -4 -13 -8 -1 -4 -58 -52 -126 -106
l-122 -98 -43 34 c-58 45 -87 70 -109 91 -10 9 -21 17 -24 17 -4 0 -97 73
-114 90 -5 5 -135 110 -170 137 -8 6 -33 27 -56 45 -23 18 -54 43 -70 56 -16
13 -62 49 -101 80 -40 31 -73 60 -73 64 0 4 -6 8 -14 8 -8 0 -16 4 -18 8 -1 4
-37 35 -78 67 -41 33 -77 62 -80 65 -3 3 -95 77 -205 164 -110 88 -201 163
-203 168 -2 4 -10 8 -17 8 -7 0 -15 3 -17 8 -1 4 -28 27 -58 52 -30 25 -56 48
-58 53 -2 4 -8 7 -13 7 -5 0 -17 8 -27 18 -23 22 -52 44 -132 107 -36 27 -70
54 -76 60 -6 5 -28 24 -49 40 -37 30 -236 188 -265 212 -8 7 -46 37 -85 68
-38 31 -79 64 -90 73 -11 10 -36 29 -55 43 -19 15 -46 37 -60 49 -14 12 -41
34 -60 49 -19 14 -37 28 -40 31 -32 35 -119 50 -154 27z m6709 -5747 l0 -2815
-4092 0 c-3639 0 -4092 2 -4095 15 -4 13 -2 5615 1 5615 0 0 1843 0 4094 0
l4092 0 0 -2815z"/>
<path d="M1985 6272 c-207 -23 -405 -163 -504 -357 -69 -138 -64 23 -66 -2050
-1 -1454 1 -1884 11 -1935 49 -256 231 -442 508 -517 12 -4 1094 -7 2406 -8
2644 -2 2458 -7 2605 65 92 46 146 88 215 167 85 98 137 225 147 353 7 106 9
3670 2 3670 -4 0 -5 13 -3 30 6 48 -43 195 -89 270 -97 158 -217 247 -403 299
-58 17 -219 18 -2430 17 -1303 0 -2382 -2 -2399 -4z m185 -254 c0 -4 7 -5 15
-2 24 9 785 10 785 1 0 -5 5 -5 11 -1 16 9 229 11 229 1 0 -5 5 -5 11 -1 15 9
229 11 229 2 0 -4 7 -5 15 -2 24 9 785 10 785 1 0 -5 5 -5 11 -1 16 9 229 11
229 1 0 -5 5 -5 11 -1 15 9 229 11 229 2 0 -4 7 -5 15 -2 22 9 545 10 545 2 0
-4 7 -5 15 -2 22 9 305 10 305 2 0 -4 7 -5 15 -2 24 9 545 10 545 1 0 -5 5 -5
11 -1 16 9 229 11 229 1 0 -5 5 -5 11 -1 7 4 62 6 123 5 61 -1 120 -2 131 -2
68 1 192 -56 258 -118 37 -35 91 -129 103 -181 10 -38 11 -3677 2 -3738 -17
-111 -105 -229 -206 -279 -62 -30 -68 -32 -127 -38 -22 -2 -42 -4 -45 -5 -16
-5 -140 -1 -149 5 -6 3 -11 3 -11 -2 0 -9 -134 -8 -149 2 -6 3 -11 3 -11 -2 0
-9 -134 -8 -149 2 -6 3 -11 3 -11 -2 0 -9 -118 -9 -127 0 -3 3 -15 2 -27 -3
-13 -4 -29 -4 -39 1 -9 6 -17 6 -17 2 0 -9 -148 -8 -157 1 -3 2 -15 1 -27 -4
-13 -4 -29 -4 -39 1 -9 6 -17 6 -17 2 0 -9 -148 -8 -157 1 -3 2 -15 1 -27 -4
-13 -4 -29 -4 -39 1 -9 6 -17 6 -17 2 0 -10 -83 -9 -99 1 -6 4 -11 4 -11 -1 0
-9 -134 -8 -149 2 -6 3 -11 3 -11 -2 0 -9 -118 -9 -127 0 -3 3 -15 2 -27 -3
-13 -4 -29 -4 -39 1 -9 6 -17 6 -17 2 0 -9 -148 -8 -157 1 -3 2 -15 1 -27 -4
-13 -4 -29 -4 -39 1 -9 6 -17 6 -17 2 0 -9 -148 -8 -157 1 -3 2 -15 1 -27 -4
-13 -4 -29 -4 -39 1 -10 6 -17 6 -17 1 0 -9 -67 -9 -76 1 -4 3 -16 2 -28 -3
-13 -4 -29 -4 -39 1 -9 6 -17 6 -17 2 0 -9 -148 -8 -157 1 -3 2 -15 1 -27 -4
-13 -4 -29 -4 -39 1 -9 6 -17 6 -17 2 0 -9 -148 -8 -157 1 -3 2 -15 1 -27 -4
-13 -4 -29 -4 -39 1 -9 6 -17 6 -17 2 0 -9 -148 -8 -157 1 -3 2 -15 1 -27 -4
-13 -4 -29 -4 -39 1 -9 6 -17 6 -17 2 0 -8 -229 -8 -237 1 -3 3 -15 1 -27 -4
-13 -4 -29 -4 -39 1 -9 6 -17 6 -17 2 0 -9 -165 -7 -180 2 -5 3 -10 3 -10 -2
0 -9 -134 -8 -149 2 -6 3 -11 3 -11 -2 0 -9 -118 -9 -127 0 -3 3 -15 2 -27 -3
-13 -4 -29 -4 -39 1 -9 6 -17 6 -17 2 0 -9 -148 -8 -157 1 -3 2 -15 1 -27 -4
-13 -4 -29 -4 -39 1 -9 6 -17 6 -17 2 0 -9 -148 -8 -157 1 -3 2 -15 1 -27 -4
-13 -4 -29 -4 -39 1 -9 6 -17 6 -17 2 0 -10 -83 -9 -99 1 -6 4 -11 4 -11 -1 0
-4 -28 -7 -62 -5 -77 3 -163 9 -163 12 0 1 -7 3 -16 5 -43 8 -128 61 -170 105
-68 72 -99 145 -108 254 -4 50 -4 93 0 96 4 3 4 12 -1 19 -4 8 -4 24 0 37 5
12 6 24 3 27 -9 9 -9 127 0 127 5 0 5 5 2 11 -10 15 -11 149 -2 149 5 0 5 5 1
11 -10 16 -11 99 -1 99 4 0 4 8 -2 17 -5 10 -5 26 -1 39 5 12 6 24 4 27 -9 9
-10 157 -1 157 4 0 4 8 -2 17 -5 10 -5 26 -1 39 5 12 6 24 4 27 -9 9 -10 157
-1 157 4 0 4 8 -2 17 -5 10 -5 26 -1 39 5 12 6 24 3 28 -10 9 -10 76 -1 76 5
0 5 7 -1 17 -5 10 -5 26 -1 39 5 12 6 24 4 27 -9 9 -10 157 -1 157 4 0 4 8 -2
17 -5 10 -5 26 -1 39 5 12 6 24 4 27 -9 9 -10 157 -1 157 4 0 4 8 -2 17 -5 10
-5 26 -1 39 5 12 6 24 4 27 -9 9 -10 157 -1 157 4 0 4 8 -2 17 -5 10 -5 26 -1
39 5 12 7 24 4 27 -9 8 -9 237 -1 237 4 0 4 8 -2 17 -5 10 -5 26 -1 39 5 12 6
24 4 27 -9 8 -9 207 -1 207 5 0 5 5 2 11 -10 15 -11 149 -2 149 5 0 5 5 1 11
-10 16 -11 99 -1 99 4 0 4 8 -2 17 -5 10 -5 26 -1 39 5 12 6 24 4 27 -9 9 -10
157 -1 157 4 0 4 8 -2 17 -5 10 -5 26 -1 39 5 12 6 24 4 27 -9 9 -10 157 -1
157 4 0 4 8 -2 17 -5 10 -5 26 -1 39 5 12 6 24 3 27 -9 9 -9 127 0 127 5 0 5
5 1 11 -6 10 -9 104 -4 112 1 1 3 13 4 27 8 85 73 192 148 247 80 59 130 78
213 82 27 1 50 3 51 4 7 6 94 1 94 -5z"/>
<path d="M8085 6269 c-22 -4 -52 -12 -67 -18 -16 -6 -28 -9 -28 -6 0 2 -20 -4
-45 -15 -199 -85 -354 -279 -390 -490 -11 -57 -8 -176 5 -232 45 -204 172
-365 355 -453 195 -92 366 -92 565 3 30 15 61 32 68 39 7 7 17 13 20 13 8 0
84 72 125 119 45 51 107 166 110 204 1 9 5 17 10 17 5 0 7 7 3 15 -3 8 -2 15
2 15 9 0 15 66 14 155 0 99 -6 155 -14 155 -5 0 -8 10 -8 22 0 29 -72 175
-105 213 -15 17 -37 42 -50 57 -31 34 -128 108 -143 108 -7 0 -12 4 -12 8 0 8
-91 44 -101 40 -3 -2 -13 3 -22 11 -10 7 -17 10 -17 7 0 -4 -9 -2 -21 4 -24
14 -197 19 -254 9z m231 -280 c69 -23 122 -59 170 -115 40 -48 78 -126 87
-179 3 -16 6 -34 7 -40 1 -5 2 -12 1 -15 -1 -3 -3 -30 -5 -61 -9 -143 -133
-289 -281 -333 -49 -14 -141 -14 -199 1 -242 62 -359 325 -247 556 18 37 50
76 108 128 78 71 244 98 359 58z"/>
<path d="M8030 4721 c-117 -31 -197 -78 -290 -171 -107 -107 -165 -218 -185
-350 -8 -55 -9 -195 -2 -208 4 -5 9 -23 12 -40 27 -154 163 -335 315 -419 37
-21 115 -53 140 -58 8 -2 35 -8 60 -14 25 -5 88 -8 140 -6 155 5 290 62 409
171 53 49 130 144 116 144 -4 0 0 7 9 15 19 20 55 115 71 190 15 73 12 189 -8
285 -6 31 -51 135 -61 142 -6 4 -7 8 -3 8 26 0 -120 167 -189 216 -49 35 -141
76 -212 94 -86 23 -235 23 -322 1z m240 -254 c79 -16 148 -56 208 -121 44 -48
97 -150 87 -167 -4 -5 -2 -9 3 -9 5 0 9 -6 10 -12 3 -42 3 -59 -1 -114 -9
-116 -98 -247 -207 -303 -41 -21 -167 -54 -179 -47 -3 2 -30 6 -59 10 -51 6
-144 42 -150 58 -2 4 -8 8 -14 8 -15 0 -98 91 -118 130 -28 55 -46 131 -45
185 2 71 15 135 28 135 5 0 8 3 4 6 -11 12 34 85 83 135 89 90 223 131 350
106z"/>
<path d="M7657 2692 c-34 -4 -104 -71 -109 -104 -10 -71 47 -152 113 -159 19
-2 268 -4 554 -3 405 0 525 3 544 13 32 17 72 61 66 72 -3 4 -1 10 4 13 14 9
2 86 -17 112 -9 12 -30 30 -47 40 -28 17 -69 18 -555 19 -289 0 -538 -1 -553
-3z"/>
<path d="M7643 2174 c-116 -40 -127 -186 -18 -247 27 -15 1089 -18 1125 -3 72
31 106 118 72 182 -17 32 -58 65 -88 70 -60 12 -1057 9 -1091 -2z"/>
<path d="M7632 1660 c-86 -35 -112 -152 -47 -216 40 -41 47 -41 615 -40 l545
1 31 22 c83 59 78 170 -9 223 -31 19 -54 20 -572 19 -299 0 -550 -4 -563 -9z"/>
</g>
</svg>
