<?xml version="1.0" standalone="no"?>
<!DOCTYPE svg PUBLIC "-//W3C//DTD SVG 20010904//EN"
 "http://www.w3.org/TR/2001/REC-SVG-20010904/DTD/svg10.dtd">
<svg version="1.0" xmlns="http://www.w3.org/2000/svg"
 width="1024.000000pt" height="1024.000000pt" viewBox="0 0 1024.000000 1024.000000"
 preserveAspectRatio="xMidYMid meet">
<metadata>
Created by potrace 1.16, written by Peter Selinger 2001-2019
</metadata>
<g transform="translate(0.000000,1024.000000) scale(0.100000,-0.100000)"
fill="white" stroke="none">
<path d="M1632 8528 c-279 -22 -539 -191 -674 -438 -28 -51 -74 -170 -82 -215
-4 -16 -9 -41 -13 -55 -3 -14 -7 -1217 -8 -2675 -2 -2789 -3 -2722 41 -2852
37 -109 110 -232 186 -314 106 -113 274 -212 413 -245 39 -9 79 -18 90 -20 11
-3 1599 -5 3530 -5 l3510 -1 94 21 c88 19 259 91 292 123 8 7 32 26 54 43 76
56 164 161 219 259 31 55 82 200 92 261 9 55 12 5316 3 5374 -17 107 -21 120
-55 209 -111 283 -380 491 -682 528 -76 9 -6891 11 -7010 2z m1782 -3828 c0
-231 -3 -422 -7 -426 -11 -11 -1689 -7 -1696 4 -4 8 -6 795 -2 835 1 4 385 7
854 7 l852 0 -1 -420z m5120 0 c0 -231 -3 -423 -7 -426 -11 -11 -4249 -7
-4256 4 -4 8 -7 795 -2 835 1 4 961 7 2134 7 l2132 0 -1 -420z m-2566 -1297
c5 -8 8 -794 3 -836 -1 -4 -960 -6 -2133 -5 l-2132 3 -1 410 c0 226 3 417 6
425 6 13 252 15 2129 14 1513 0 2124 -4 2128 -11z m2547 8 c20 -1 20 -8 19
-423 l0 -423 -855 -3 -854 -2 1 421 c0 292 4 423 11 427 8 5 1569 8 1678 3z"/>
</g>
</svg>
